# xmcd
#
# Track frame offsets:
#	150
#	16091
#	30422
#	43999
#	60910
#	72984
#	92414
#	109569
#	126718
#	144085
#	166476
#
# Disc length: 2439 seconds
#
# Revision: 2
# Processed by: cddbd v1.5.2PL0 Copyright (c) Steve Scherf et al.
# Submitted via: audiograbber 1.83.01
#
DISCID=8909850b
DTITLE=Tracy Byrd - Different Things
DYEAR=2006
DGENRE=Country
TTITLE0=Different Things
TTITLE1=The More I Feel Like Rockin'
TTITLE2=She Was Smart
TTITLE3=A Cowboy And A Dancer
TTITLE4=The Biggest Thing In Texas
TTITLE5=Just One Woman
TTITLE6=Saltwater Cowboy
TTITLE7=Cheapest Motel
TTITLE8=Better Places Than This
TTITLE9=Before I Die
TTITLE10=Hot Night In The Country
EXTD=
EXTT0=
EXTT1=
EXTT2=
EXTT3=
EXTT4=
EXTT5=
EXTT6=
EXTT7=
EXTT8=
EXTT9=
EXTT10=
PLAYORDER=
